<svg xmlns="http://www.w3.org/2000/svg" viewBox="0 0 1920 280" preserveAspectRatio="xMidYMid slice">
  <defs>
    <radialGradient id="glow" cx="82%" cy="50%" r="35%">
      <stop offset="0%" stop-color="#00e5ff" stop-opacity="0.15"/>
      <stop offset="50%" stop-color="#00e5ff" stop-opacity="0.06"/>
      <stop offset="100%" stop-color="#00e5ff" stop-opacity="0"/>
    </radialGradient>
    <radialGradient id="glow2" cx="20%" cy="60%" r="30%">
      <stop offset="0%" stop-color="#c084fc" stop-opacity="0.08"/>
      <stop offset="100%" stop-color="#c084fc" stop-opacity="0"/>
    </radialGradient>
    <linearGradient id="fade-left" x1="0" x2="1" y1="0" y2="0">
      <stop offset="0%" stop-color="#0d1117" stop-opacity="1"/>
      <stop offset="35%" stop-color="#0d1117" stop-opacity="0.85"/>
      <stop offset="70%" stop-color="#0d1117" stop-opacity="0.2"/>
      <stop offset="100%" stop-color="#0d1117" stop-opacity="0"/>
    </linearGradient>
    <linearGradient id="fade-right" x1="1" x2="0" y1="0" y2="0">
      <stop offset="0%" stop-color="#0d1117" stop-opacity="0.6"/>
      <stop offset="40%" stop-color="#0d1117" stop-opacity="0"/>
    </linearGradient>
    <linearGradient id="needle-n" x1="0" x2="0" y1="1" y2="0">
      <stop offset="0%" stop-color="#00e5ff"/>
      <stop offset="100%" stop-color="#67e8f9"/>
    </linearGradient>
    <linearGradient id="needle-s" x1="0" x2="0" y1="0" y2="1">
      <stop offset="0%" stop-color="#334155"/>
      <stop offset="100%" stop-color="#475569"/>
    </linearGradient>
  </defs>

  <!-- Background -->
  <rect width="1920" height="280" fill="#0d1117"/>
  <rect width="1920" height="280" fill="url(#glow)"/>
  <rect width="1920" height="280" fill="url(#glow2)"/>

  <!-- Grid lines -->
  <g stroke="#334155" stroke-width="0.3" opacity="0.5">
    <line x1="0" y1="70" x2="1920" y2="70"/>
    <line x1="0" y1="140" x2="1920" y2="140"/>
    <line x1="0" y1="210" x2="1920" y2="210"/>
    <line x1="480" y1="0" x2="480" y2="280"/>
    <line x1="960" y1="0" x2="960" y2="280"/>
    <line x1="1440" y1="0" x2="1440" y2="280"/>
  </g>

  <!-- Main Compass Rose - right side, clearly visible -->
  <g transform="translate(1480, 140)" opacity="0.75">
    <!-- Outer rings -->
    <circle cx="0" cy="0" r="120" fill="none" stroke="#475569" stroke-width="1.5"/>
    <circle cx="0" cy="0" r="117" fill="none" stroke="#334155" stroke-width="0.5"/>
    <circle cx="0" cy="0" r="100" fill="none" stroke="#475569" stroke-width="0.8"/>

    <!-- Major ticks every 30 degrees -->
    <g stroke="#94a3b8" stroke-width="1">
      <line x1="0" y1="-100" x2="0" y2="-117"/>
      <line x1="0" y1="-100" x2="0" y2="-117" transform="rotate(30)"/>
      <line x1="0" y1="-100" x2="0" y2="-117" transform="rotate(60)"/>
      <line x1="0" y1="-100" x2="0" y2="-117" transform="rotate(90)"/>
      <line x1="0" y1="-100" x2="0" y2="-117" transform="rotate(120)"/>
      <line x1="0" y1="-100" x2="0" y2="-117" transform="rotate(150)"/>
      <line x1="0" y1="-100" x2="0" y2="-117" transform="rotate(180)"/>
      <line x1="0" y1="-100" x2="0" y2="-117" transform="rotate(210)"/>
      <line x1="0" y1="-100" x2="0" y2="-117" transform="rotate(240)"/>
      <line x1="0" y1="-100" x2="0" y2="-117" transform="rotate(270)"/>
      <line x1="0" y1="-100" x2="0" y2="-117" transform="rotate(300)"/>
      <line x1="0" y1="-100" x2="0" y2="-117" transform="rotate(330)"/>
    </g>
    <!-- Minor ticks -->
    <g stroke="#64748b" stroke-width="0.5">
      <line x1="0" y1="-105" x2="0" y2="-117" transform="rotate(15)"/>
      <line x1="0" y1="-105" x2="0" y2="-117" transform="rotate(45)"/>
      <line x1="0" y1="-105" x2="0" y2="-117" transform="rotate(75)"/>
      <line x1="0" y1="-105" x2="0" y2="-117" transform="rotate(105)"/>
      <line x1="0" y1="-105" x2="0" y2="-117" transform="rotate(135)"/>
      <line x1="0" y1="-105" x2="0" y2="-117" transform="rotate(165)"/>
      <line x1="0" y1="-105" x2="0" y2="-117" transform="rotate(195)"/>
      <line x1="0" y1="-105" x2="0" y2="-117" transform="rotate(225)"/>
      <line x1="0" y1="-105" x2="0" y2="-117" transform="rotate(255)"/>
      <line x1="0" y1="-105" x2="0" y2="-117" transform="rotate(285)"/>
      <line x1="0" y1="-105" x2="0" y2="-117" transform="rotate(315)"/>
      <line x1="0" y1="-105" x2="0" y2="-117" transform="rotate(345)"/>
    </g>

    <!-- Cardinal labels -->
    <text x="0" y="-128" text-anchor="middle" fill="#00e5ff" font-family="monospace" font-size="16" font-weight="bold">N</text>
    <text x="0" y="140" text-anchor="middle" fill="#94a3b8" font-family="monospace" font-size="13">S</text>
    <text x="133" y="5" text-anchor="middle" fill="#94a3b8" font-family="monospace" font-size="13">E</text>
    <text x="-133" y="5" text-anchor="middle" fill="#94a3b8" font-family="monospace" font-size="13">W</text>

    <!-- North needle - bright cyan -->
    <polygon points="0,-90 -10,0 0,-18 10,0" fill="url(#needle-n)"/>
    <!-- South needle -->
    <polygon points="0,90 -10,0 0,18 10,0" fill="url(#needle-s)"/>
    <!-- East needle -->
    <polygon points="90,0 0,-7 18,0 0,7" fill="#475569"/>
    <!-- West needle -->
    <polygon points="-90,0 0,-7 -18,0 0,7" fill="#475569"/>

    <!-- Intercardinal needles (thinner) -->
    <polygon points="63,-63 -2,2 4,-4 2,-2" fill="#475569" transform="scale(1.2)"/>
    <polygon points="63,63 -2,-2 4,4 2,2" fill="#475569" transform="scale(1.2)"/>
    <polygon points="-63,63 2,-2 -4,4 -2,2" fill="#475569" transform="scale(1.2)"/>
    <polygon points="-63,-63 2,2 -4,-4 -2,-2" fill="#475569" transform="scale(1.2)"/>

    <!-- Inner ring -->
    <circle cx="0" cy="0" r="35" fill="none" stroke="#475569" stroke-width="0.5" stroke-dasharray="4,3"/>

    <!-- Center -->
    <circle cx="0" cy="0" r="5" fill="#0d1117" stroke="#00e5ff" stroke-width="1.5"/>
    <circle cx="0" cy="0" r="2" fill="#00e5ff"/>
  </g>

  <!-- Second compass - left area, subtle -->
  <g transform="translate(250, 170) scale(0.35)" opacity="0.3">
    <circle cx="0" cy="0" r="120" fill="none" stroke="#c084fc" stroke-width="2"/>
    <circle cx="0" cy="0" r="100" fill="none" stroke="#c084fc" stroke-width="1"/>
    <g stroke="#c084fc" stroke-width="1">
      <line x1="0" y1="-100" x2="0" y2="-117"/>
      <line x1="0" y1="-100" x2="0" y2="-117" transform="rotate(90)"/>
      <line x1="0" y1="-100" x2="0" y2="-117" transform="rotate(180)"/>
      <line x1="0" y1="-100" x2="0" y2="-117" transform="rotate(270)"/>
    </g>
    <polygon points="0,-90 -10,0 0,-18 10,0" fill="#c084fc"/>
    <polygon points="0,90 -10,0 0,18 10,0" fill="#475569"/>
    <polygon points="90,0 0,-7 18,0 0,7" fill="#475569"/>
    <polygon points="-90,0 0,-7 -18,0 0,7" fill="#475569"/>
    <circle cx="0" cy="0" r="5" fill="#0d1117" stroke="#c084fc" stroke-width="1.5"/>
  </g>

  <!-- Decorative arcs -->
  <path d="M 750 280 Q 960 210 1170 280" fill="none" stroke="#475569" stroke-width="0.5" opacity="0.3"/>
  <path d="M 650 0 Q 960 60 1270 0" fill="none" stroke="#475569" stroke-width="0.5" opacity="0.2"/>

  <!-- Fade overlays -->
  <rect width="700" height="280" fill="url(#fade-left)"/>
  <rect x="1350" width="570" height="280" fill="url(#fade-right)"/>
</svg>
